<svg width="23" height="21" viewBox="0 0 23 21" fill="none" xmlns="http://www.w3.org/2000/svg">
<path d="M1.59997 0.599995C1.49396 0.598495 1.38871 0.61808 1.29033 0.657611C1.19196 0.697142 1.10242 0.755831 1.02693 0.830266C0.951431 0.904702 0.891482 0.9934 0.850564 1.09121C0.809646 1.18901 0.788574 1.29397 0.788574 1.39999C0.788574 1.50601 0.809646 1.61098 0.850564 1.70878C0.891482 1.80659 0.951431 1.89529 1.02693 1.96972C1.10242 2.04416 1.19196 2.10285 1.29033 2.14238C1.38871 2.18191 1.49396 2.20149 1.59997 2.19999H3.10309C3.28382 2.19999 3.43462 2.31317 3.48591 2.48749L6.89528 14.0781C7.19451 15.0955 8.1355 15.8 9.19684 15.8H17.9781C19.0568 15.8 20.0093 15.0709 20.2937 14.0312L22.3718 6.41093C22.4043 6.29222 22.4089 6.16763 22.3853 6.04685C22.3618 5.92607 22.3106 5.81235 22.236 5.71454C22.1613 5.61673 22.065 5.53747 21.9547 5.48291C21.8444 5.42836 21.723 5.39998 21.6 5.39999H18.4H14.4V6.99999V10.6687L16.2343 8.83437C16.5471 8.52157 17.0528 8.52157 17.3656 8.83437C17.6784 9.14717 17.6784 9.65282 17.3656 9.96562L14.1656 13.1656C14.0096 13.3216 13.8048 13.4 13.6 13.4C13.3952 13.4 13.1903 13.3216 13.0343 13.1656L9.83434 9.96562C9.52154 9.65282 9.52154 9.14717 9.83434 8.83437C10.1471 8.52157 10.6528 8.52157 10.9656 8.83437L12.8 10.6687V6.99999V6.19999V5.39999H6.01091L5.02184 2.03593C5.02132 2.03593 5.0208 2.03593 5.02028 2.03593C4.77077 1.18786 3.98637 0.599995 3.10309 0.599995H1.59997ZM12.8 5.39999H14.4V1.39999C14.4 0.958395 14.0416 0.599995 13.6 0.599995C13.1584 0.599995 12.8 0.958395 12.8 1.39999V5.39999ZM9.59997 17.4C9.17562 17.4 8.76866 17.5686 8.4686 17.8686C8.16854 18.1687 7.99997 18.5756 7.99997 19C7.99997 19.4243 8.16854 19.8313 8.4686 20.1314C8.76866 20.4314 9.17562 20.6 9.59997 20.6C10.0243 20.6 10.4313 20.4314 10.7313 20.1314C11.0314 19.8313 11.2 19.4243 11.2 19C11.2 18.5756 11.0314 18.1687 10.7313 17.8686C10.4313 17.5686 10.0243 17.4 9.59997 17.4ZM17.6 17.4C17.1756 17.4 16.7687 17.5686 16.4686 17.8686C16.1685 18.1687 16 18.5756 16 19C16 19.4243 16.1685 19.8313 16.4686 20.1314C16.7687 20.4314 17.1756 20.6 17.6 20.6C18.0243 20.6 18.4313 20.4314 18.7313 20.1314C19.0314 19.8313 19.2 19.4243 19.2 19C19.2 18.5756 19.0314 18.1687 18.7313 17.8686C18.4313 17.5686 18.0243 17.4 17.6 17.4Z" fill="#555555"/>
</svg>
