<svg width="18" height="16" viewBox="0 0 18 16" fill="none" xmlns="http://www.w3.org/2000/svg">
<path fill-rule="evenodd" clip-rule="evenodd" d="M5.36462 1.33333C3.32136 1.33333 1.66671 2.98798 1.66671 5.03125C1.66671 5.91288 2.04821 6.94463 2.69854 8.04125C3.34204 9.12636 4.20991 10.2107 5.09345 11.1819C5.97474 12.1507 6.85822 12.9924 7.52244 13.5926C7.85411 13.8923 8.13003 14.1308 8.32225 14.2938C8.41834 14.3753 8.49344 14.4378 8.54406 14.4795C8.56936 14.5004 8.58854 14.5161 8.60116 14.5264L8.61026 14.5338C8.72785 14.6204 8.8597 14.6667 9.00004 14.6667C9.14038 14.6667 9.27223 14.6204 9.38982 14.5338L9.39892 14.5264C9.41154 14.5161 9.43072 14.5004 9.45602 14.4795C9.50664 14.4378 9.58174 14.3753 9.67783 14.2938C9.87005 14.1308 10.146 13.8923 10.4776 13.5926C11.1419 12.9924 12.0253 12.1507 12.9066 11.1819C13.7902 10.2107 14.658 9.12636 15.3015 8.04125C15.9519 6.94463 16.3334 5.91288 16.3334 5.03125C16.3334 2.98798 14.6787 1.33333 12.6355 1.33333C11.6858 1.33333 10.9203 1.74502 10.3725 2.18597C10.1003 2.40515 9.89059 2.62487 9.75017 2.78843C9.68028 2.86984 9.62844 2.93629 9.59545 2.98035C9.57897 3.00235 9.56727 3.01866 9.56044 3.02835L9.55388 3.03777L9.55422 3.03724L9.55429 3.03714C9.43059 3.2222 9.22267 3.33333 9.00004 3.33333C8.77714 3.33333 8.56898 3.22193 8.44534 3.03647L9.00004 2.66667C8.44534 3.03647 8.44548 3.03668 8.44561 3.03688L8.44586 3.03724L8.4462 3.03777L8.43964 3.02835C8.43281 3.01866 8.42111 3.00235 8.40463 2.98035C8.37164 2.93629 8.3198 2.86984 8.24991 2.78843C8.10949 2.62487 7.89982 2.40515 7.62756 2.18597C7.07981 1.74502 6.31432 1.33333 5.36462 1.33333ZM9.00004 1.63473C8.85083 1.48213 8.67171 1.31484 8.46367 1.14736C7.76923 0.588318 6.71701 0 5.36462 0C2.58498 0 0.333374 2.2516 0.333374 5.03125C0.333374 6.2629 0.851934 7.54137 1.5517 8.72136C2.2583 9.91287 3.19056 11.0716 4.10715 12.0791C5.02599 13.0892 5.94264 13.9622 6.62852 14.5819C6.9719 14.8922 7.25852 15.14 7.46007 15.3109C7.56088 15.3963 7.64047 15.4626 7.69533 15.5079C7.72276 15.5305 7.74402 15.5479 7.75865 15.5598L7.77559 15.5736L7.78023 15.5774L7.78158 15.5784L7.78201 15.5788C7.78215 15.5789 7.78227 15.579 8.20056 15.0599L7.78227 15.579C7.78764 15.5833 7.79308 15.5876 7.79859 15.5917C8.12698 15.8399 8.5393 16 9.00004 16C9.46078 16 9.8731 15.8399 10.2015 15.5917C10.207 15.5876 10.2124 15.5833 10.2178 15.579L9.79952 15.0599C10.2178 15.579 10.2179 15.5789 10.2181 15.5788L10.2185 15.5784L10.2198 15.5774L10.2245 15.5736L10.2414 15.5598C10.2561 15.5479 10.2773 15.5305 10.3047 15.5079C10.3596 15.4626 10.4392 15.3963 10.54 15.3109C10.7416 15.14 11.0282 14.8922 11.3716 14.5819C12.0574 13.9622 12.9741 13.0892 13.8929 12.0791C14.8095 11.0716 15.7418 9.91287 16.4484 8.72136C17.1481 7.54137 17.6667 6.2629 17.6667 5.03125C17.6667 2.2516 15.4151 0 12.6355 0C11.2831 0 10.2309 0.588318 9.53641 1.14736C9.32837 1.31484 9.14925 1.48213 9.00004 1.63473ZM9.00004 2.66667C9.55474 3.03647 9.5546 3.03668 9.55447 3.03688C9.55456 3.03674 9.55465 3.0366 9.55474 3.03647L9.00004 2.66667ZM8.4462 3.03777C8.44668 3.03846 8.44685 3.03871 8.4467 3.0385L8.44626 3.03784" fill="#EB5757"/>
</svg>
