<svg width="18" height="17" viewBox="0 0 18 17" fill="none" xmlns="http://www.w3.org/2000/svg">
<path d="M8.99992 0C4.21325 0 0.333252 3.28333 0.333252 7.33333C0.333252 9.57867 1.5288 11.5857 3.40747 12.931C3.45544 13.955 3.29677 15.3689 1.88403 16.0208L1.88143 16.0221C1.81831 16.0461 1.76397 16.0887 1.72561 16.1443C1.68724 16.1999 1.66666 16.2658 1.66659 16.3333C1.66659 16.4217 1.7017 16.5065 1.76422 16.569C1.82673 16.6315 1.91151 16.6667 1.99992 16.6667C2.00948 16.6666 2.01904 16.6662 2.02856 16.6654C3.65125 16.655 5.02877 15.778 5.97908 14.8516C6.28042 14.5576 6.7005 14.4129 7.1145 14.4909C7.72117 14.6062 8.35192 14.6667 8.99992 14.6667C13.7866 14.6667 17.6666 11.3833 17.6666 7.33333C17.6666 3.28333 13.7866 0 8.99992 0ZM8.99992 3.48958C9.13392 3.48958 9.26823 3.56542 9.32023 3.71875L10.0924 6.00391L12.5038 6.03255C12.8272 6.03589 12.9611 6.44729 12.7017 6.64063L10.7668 8.08073L11.4856 10.3828C11.5589 10.6188 11.3714 10.8229 11.1614 10.8229C11.0967 10.8229 11.03 10.8038 10.9674 10.7591L8.99992 9.36458L7.03247 10.7591C6.97047 10.8031 6.90379 10.8229 6.83846 10.8229C6.62846 10.8229 6.44024 10.6188 6.51424 10.3828L7.23299 8.08073L5.2981 6.64063C5.03876 6.44796 5.17268 6.03655 5.49601 6.03255L7.90747 6.00391L8.67961 3.71875C8.73161 3.56542 8.86592 3.48958 8.99992 3.48958Z" fill="white"/>
</svg>
