<svg width="17" height="17" viewBox="0 0 17 17" fill="none" xmlns="http://www.w3.org/2000/svg">
<path d="M6.66667 3.05176e-05C2.99266 3.05176e-05 0 2.9927 0 6.6667C0 10.3407 2.99266 13.3334 6.66667 13.3334C8.26434 13.3334 9.73159 12.766 10.8815 11.8242L14.862 15.8047C14.9234 15.8687 14.997 15.9198 15.0784 15.955C15.1598 15.9902 15.2474 16.0088 15.3361 16.0097C15.4248 16.0106 15.5128 15.9938 15.5949 15.9602C15.6771 15.9267 15.7517 15.8771 15.8144 15.8144C15.8771 15.7517 15.9267 15.6771 15.9602 15.595C15.9937 15.5129 16.0105 15.4249 16.0096 15.3362C16.0087 15.2475 15.9901 15.1599 15.9549 15.0784C15.9198 14.997 15.8687 14.9234 15.8047 14.862L11.8242 10.8815C12.766 9.73162 13.3333 8.26437 13.3333 6.6667C13.3333 2.9927 10.3407 3.05176e-05 6.66667 3.05176e-05ZM6.66667 1.33336C9.62008 1.33336 12 3.71328 12 6.6667C12 9.62011 9.62008 12 6.66667 12C3.71325 12 1.33333 9.62011 1.33333 6.6667C1.33333 3.71328 3.71325 1.33336 6.66667 1.33336Z" fill="#555555"/>
</svg>
